<svg width="1653" height="993" xmlns="http://www.w3.org/2000/svg" xmlns:xlink="http://www.w3.org/1999/xlink" overflow="hidden"><defs><clipPath id="clip0"><rect x="2060" y="-1" width="1653" height="993"/></clipPath><clipPath id="clip1"><rect x="2060" y="0" width="1650" height="990"/></clipPath><clipPath id="clip2"><rect x="2254" y="169" width="1409" height="517"/></clipPath><clipPath id="clip3"><rect x="2254" y="169" width="1409" height="517"/></clipPath><clipPath id="clip4"><rect x="2060" y="0" width="1650" height="990"/></clipPath><clipPath id="clip5"><rect x="2060" y="0" width="1650" height="990"/></clipPath><clipPath id="clip6"><rect x="2060" y="0" width="1650" height="990"/></clipPath><clipPath id="clip7"><rect x="2060" y="0" width="1650" height="990"/></clipPath><clipPath id="clip8"><rect x="2060" y="0" width="1650" height="990"/></clipPath><clipPath id="clip9"><rect x="2060" y="0" width="1650" height="990"/></clipPath><clipPath id="clip10"><rect x="2060" y="0" width="1650" height="990"/></clipPath><clipPath id="clip11"><rect x="2060" y="0" width="1650" height="990"/></clipPath><clipPath id="clip12"><rect x="2060" y="0" width="1650" height="990"/></clipPath><clipPath id="clip13"><rect x="2060" y="0" width="1650" height="990"/></clipPath><clipPath id="clip14"><rect x="2060" y="0" width="1650" height="990"/></clipPath><clipPath id="clip15"><rect x="2060" y="0" width="1650" height="990"/></clipPath><clipPath id="clip16"><rect x="2060" y="0" width="1650" height="990"/></clipPath><clipPath id="clip17"><rect x="2060" y="0" width="1650" height="990"/></clipPath><clipPath id="clip18"><rect x="2060" y="0" width="1650" height="990"/></clipPath><clipPath id="clip19"><rect x="2060" y="0" width="1650" height="990"/></clipPath><clipPath id="clip20"><rect x="2060" y="0" width="1650" height="990"/></clipPath><clipPath id="clip21"><rect x="2060" y="0" width="1650" height="990"/></clipPath><clipPath id="clip22"><rect x="2060" y="0" width="1650" height="990"/></clipPath><clipPath id="clip23"><rect x="2060" y="0" width="1650" height="990"/></clipPath><clipPath id="clip24"><rect x="2060" y="0" width="1650" height="990"/></clipPath><clipPath id="clip25"><rect x="2060" y="0" width="1650" height="990"/></clipPath><clipPath id="clip26"><rect x="2060" y="0" width="1650" height="990"/></clipPath></defs><g clip-path="url(#clip0)" transform="translate(-2060 1)"><rect x="2061" y="0" width="1650" height="990" fill="#FFFFFF"/><g clip-path="url(#clip1)"><path d="M2254.5 682.5 3660.5 682.5M2254.5 511.517 3660.5 511.517M2254.5 426.514 3660.5 426.514M2254.5 340.511 3660.5 340.511M2254.5 255.509 3660.5 255.509M2254.5 169.5 3660.5 169.5" stroke="#D9D9D9" stroke-width="3.4375" stroke-linejoin="round" stroke-miterlimit="10" fill="none"/></g><g clip-path="url(#clip2)"><path d="M2289.08 526.017 2320.08 526.017 2320.08 597.02 2289.08 597.02ZM2429.08 432.014 2461.08 432.014 2461.08 597.02 2429.08 597.02ZM2570.08 382.013 2601.09 382.013 2601.09 597.02 2570.08 597.02ZM2711.09 350.011 2742.09 350.011 2742.09 597.02 2711.09 597.02ZM2851.09 323.011 2883.09 323.011 2883.09 597.02 2851.09 597.02ZM2992.1 302.01 3023.1 302.01 3023.1 597.02 2992.1 597.02ZM3132.1 284.009 3164.1 284.009 3164.1 597.02 3132.1 597.02ZM3273.11 266.009 3304.11 266.009 3304.11 597.02 3273.11 597.02ZM3414.11 253.008 3445.11 253.008 3445.11 597.02 3414.11 597.02ZM3554.12 240.008 3586.12 240.008 3586.12 597.02 3554.12 597.02Z" fill="#5B9BD5"/></g><g clip-path="url(#clip3)"><path d="M2329.08 646.021 2360.08 646.021 2360.08 597.02 2329.08 597.02ZM2469.08 567.019 2501.08 567.019 2501.08 597.02 2469.08 597.02ZM2610.09 522.017 2641.09 522.017 2641.09 597.02 2610.09 597.02ZM2751.09 490.016 2782.09 490.016 2782.09 597.02 2751.09 597.02ZM2891.09 465.015 2923.1 465.015 2923.1 597.02 2891.09 597.02ZM3032.1 444.015 3063.1 444.015 3063.1 597.02 3032.1 597.02ZM3172.1 427.014 3204.11 427.014 3204.11 597.02 3172.1 597.02ZM3313.11 412.014 3345.11 412.014 3345.11 597.02 3313.11 597.02ZM3454.11 399.013 3485.11 399.013 3485.11 597.02 3454.11 597.02ZM3594.12 388.013 3626.12 388.013 3626.12 597.02 3594.12 597.02Z" fill="#ED7D31"/></g><g clip-path="url(#clip4)"><path d="M2254.5 597.5 3660.5 597.5" stroke="#D9D9D9" stroke-width="3.4375" stroke-linejoin="round" stroke-miterlimit="10" fill="none" fill-rule="evenodd"/></g><g clip-path="url(#clip5)"><text fill="#595959" font-family="Calibri,Calibri_MSFontService,sans-serif" font-weight="400" font-size="41" transform="matrix(1 0 0 1 2163.77 695)">0.1</text></g><g clip-path="url(#clip6)"><text fill="#595959" font-family="Calibri,Calibri_MSFontService,sans-serif" font-weight="400" font-size="41" transform="matrix(1 0 0 1 2195.07 609)">1</text></g><g clip-path="url(#clip7)"><text fill="#595959" font-family="Calibri,Calibri_MSFontService,sans-serif" font-weight="400" font-size="41" transform="matrix(1 0 0 1 2174.17 524)">10</text></g><g clip-path="url(#clip8)"><text fill="#595959" font-family="Calibri,Calibri_MSFontService,sans-serif" font-weight="400" font-size="41" transform="matrix(1 0 0 1 2153.27 438)">100</text></g><g clip-path="url(#clip9)"><text fill="#595959" font-family="Calibri,Calibri_MSFontService,sans-serif" font-weight="400" font-size="41" transform="matrix(1 0 0 1 2132.37 353)">1000</text></g><g clip-path="url(#clip10)"><text fill="#595959" font-family="Calibri,Calibri_MSFontService,sans-serif" font-weight="400" font-size="41" transform="matrix(1 0 0 1 2111.47 267)">10000</text></g><g clip-path="url(#clip11)"><text fill="#595959" font-family="Calibri,Calibri_MSFontService,sans-serif" font-weight="400" font-size="41" transform="matrix(1 0 0 1 2090.57 182)">100000</text></g><g clip-path="url(#clip12)"><text fill="#595959" font-family="Calibri,Calibri_MSFontService,sans-serif" font-weight="400" font-size="41" transform="matrix(0.707107 -0.707107 0.707107 0.707107 2163.19 822)">int 1000*1000</text></g><g clip-path="url(#clip13)"><text fill="#595959" font-family="Calibri,Calibri_MSFontService,sans-serif" font-weight="400" font-size="41" transform="matrix(0.707107 -0.707107 0.707107 0.707107 2303.8 822)">int 2000*2000</text></g><g clip-path="url(#clip14)"><text fill="#595959" font-family="Calibri,Calibri_MSFontService,sans-serif" font-weight="400" font-size="41" transform="matrix(0.707107 -0.707107 0.707107 0.707107 2444.41 822)">int 3000*3000</text></g><g clip-path="url(#clip15)"><text fill="#595959" font-family="Calibri,Calibri_MSFontService,sans-serif" font-weight="400" font-size="41" transform="matrix(0.707107 -0.707107 0.707107 0.707107 2585.02 822)">int 4000*4000</text></g><g clip-path="url(#clip16)"><text fill="#595959" font-family="Calibri,Calibri_MSFontService,sans-serif" font-weight="400" font-size="41" transform="matrix(0.707107 -0.707107 0.707107 0.707107 2725.64 822)">int 5000*5000</text></g><g clip-path="url(#clip17)"><text fill="#595959" font-family="Calibri,Calibri_MSFontService,sans-serif" font-weight="400" font-size="41" transform="matrix(0.707107 -0.707107 0.707107 0.707107 2866.25 822)">int 6000*6000</text></g><g clip-path="url(#clip18)"><text fill="#595959" font-family="Calibri,Calibri_MSFontService,sans-serif" font-weight="400" font-size="41" transform="matrix(0.707107 -0.707107 0.707107 0.707107 3006.86 822)">int 7000*7000</text></g><g clip-path="url(#clip19)"><text fill="#595959" font-family="Calibri,Calibri_MSFontService,sans-serif" font-weight="400" font-size="41" transform="matrix(0.707107 -0.707107 0.707107 0.707107 3147.47 822)">int 8000*8000</text></g><g clip-path="url(#clip20)"><text fill="#595959" font-family="Calibri,Calibri_MSFontService,sans-serif" font-weight="400" font-size="41" transform="matrix(0.707107 -0.707107 0.707107 0.707107 3288.09 822)">int 9000*9000</text></g><g clip-path="url(#clip21)"><text fill="#595959" font-family="Calibri,Calibri_MSFontService,sans-serif" font-weight="400" font-size="41" transform="matrix(0.707107 -0.707107 0.707107 0.707107 3399.14 852)">int 10000*10000</text></g><g clip-path="url(#clip22)"><text fill="#595959" font-family="Calibri,Calibri_MSFontService,sans-serif" font-weight="400" font-size="64" transform="matrix(1 0 0 1 2815.32 95)">Short</text></g><g clip-path="url(#clip23)"><rect x="2663" y="912" width="23" height="23.0001" fill="#5B9BD5"/></g><g clip-path="url(#clip24)"><text fill="#595959" font-family="Calibri,Calibri_MSFontService,sans-serif" font-weight="400" font-size="41" transform="matrix(1 0 0 1 2695.4 935)">Traditional</text></g><g clip-path="url(#clip25)"><rect x="2919" y="912" width="23" height="23.0001" fill="#ED7D31"/></g><g clip-path="url(#clip26)"><text fill="#595959" font-family="Calibri,Calibri_MSFontService,sans-serif" font-weight="400" font-size="41" transform="matrix(1 0 0 1 2951.71 935)">Optimized</text></g><rect x="2061.5" y="0.499836" width="1650" height="990" stroke="#D9D9D9" stroke-width="3.4375" stroke-linejoin="round" stroke-miterlimit="10" fill="none"/></g></svg>