<svg width="3027" height="1818" xmlns="http://www.w3.org/2000/svg" xmlns:xlink="http://www.w3.org/1999/xlink" overflow="hidden"><defs><clipPath id="clip0"><rect x="2630" y="508" width="3027" height="1818"/></clipPath><clipPath id="clip1"><rect x="2631" y="508" width="3023" height="1815"/></clipPath><clipPath id="clip2"><rect x="2762" y="678" width="2734" height="1340"/></clipPath><clipPath id="clip3"><rect x="2631" y="508" width="3023" height="1815"/></clipPath><clipPath id="clip4"><rect x="2762" y="678" width="2734" height="1340"/></clipPath><clipPath id="clip5"><rect x="2631" y="508" width="3023" height="1815"/></clipPath><clipPath id="clip6"><rect x="2631" y="508" width="3023" height="1815"/></clipPath><clipPath id="clip7"><rect x="2631" y="508" width="3023" height="1815"/></clipPath><clipPath id="clip8"><rect x="2631" y="508" width="3023" height="1815"/></clipPath><clipPath id="clip9"><rect x="2631" y="508" width="3023" height="1815"/></clipPath><clipPath id="clip10"><rect x="2631" y="508" width="3023" height="1815"/></clipPath><clipPath id="clip11"><rect x="2631" y="508" width="3023" height="1815"/></clipPath><clipPath id="clip12"><rect x="2631" y="508" width="3023" height="1815"/></clipPath><clipPath id="clip13"><rect x="2631" y="508" width="3023" height="1815"/></clipPath><clipPath id="clip14"><rect x="2631" y="508" width="3023" height="1815"/></clipPath><clipPath id="clip15"><rect x="2631" y="508" width="3023" height="1815"/></clipPath><clipPath id="clip16"><rect x="2631" y="508" width="3023" height="1815"/></clipPath><clipPath id="clip17"><rect x="2631" y="508" width="3023" height="1815"/></clipPath><clipPath id="clip18"><rect x="2631" y="508" width="3023" height="1815"/></clipPath><clipPath id="clip19"><rect x="2631" y="508" width="3023" height="1815"/></clipPath><clipPath id="clip20"><rect x="2631" y="508" width="3023" height="1815"/></clipPath><clipPath id="clip21"><rect x="2631" y="508" width="3023" height="1815"/></clipPath><clipPath id="clip22"><rect x="2631" y="508" width="3023" height="1815"/></clipPath><clipPath id="clip23"><rect x="2631" y="508" width="3023" height="1815"/></clipPath><clipPath id="clip24"><rect x="2631" y="508" width="3023" height="1815"/></clipPath><clipPath id="clip25"><rect x="2631" y="508" width="3023" height="1815"/></clipPath><clipPath id="clip26"><rect x="2631" y="508" width="3023" height="1815"/></clipPath><clipPath id="clip27"><rect x="2631" y="508" width="3023" height="1815"/></clipPath><clipPath id="clip28"><rect x="2631" y="508" width="3023" height="1815"/></clipPath><clipPath id="clip29"><rect x="2631" y="508" width="3023" height="1815"/></clipPath><clipPath id="clip30"><rect x="2631" y="508" width="3023" height="1815"/></clipPath><clipPath id="clip31"><rect x="2631" y="508" width="3023" height="1815"/></clipPath><clipPath id="clip32"><rect x="2631" y="508" width="3023" height="1815"/></clipPath><clipPath id="clip33"><rect x="2631" y="508" width="3023" height="1815"/></clipPath><clipPath id="clip34"><rect x="2631" y="508" width="3023" height="1815"/></clipPath><clipPath id="clip35"><rect x="2631" y="508" width="3023" height="1815"/></clipPath><clipPath id="clip36"><rect x="2631" y="508" width="3023" height="1815"/></clipPath><clipPath id="clip37"><rect x="2631" y="508" width="3023" height="1815"/></clipPath><clipPath id="clip38"><rect x="2631" y="508" width="3023" height="1815"/></clipPath><clipPath id="clip39"><rect x="2631" y="508" width="3023" height="1815"/></clipPath><clipPath id="clip40"><rect x="2631" y="508" width="3023" height="1815"/></clipPath><clipPath id="clip41"><rect x="2631" y="508" width="3023" height="1815"/></clipPath><clipPath id="clip42"><rect x="2631" y="508" width="3023" height="1815"/></clipPath><clipPath id="clip43"><rect x="2631" y="508" width="3023" height="1815"/></clipPath><clipPath id="clip44"><rect x="2631" y="508" width="3023" height="1815"/></clipPath><clipPath id="clip45"><rect x="2631" y="508" width="3023" height="1815"/></clipPath><clipPath id="clip46"><rect x="2631" y="508" width="3023" height="1815"/></clipPath><clipPath id="clip47"><rect x="2631" y="508" width="3023" height="1815"/></clipPath><clipPath id="clip48"><rect x="2631" y="508" width="3023" height="1815"/></clipPath><clipPath id="clip49"><rect x="2631" y="508" width="3023" height="1815"/></clipPath><clipPath id="clip50"><rect x="2631" y="508" width="3023" height="1815"/></clipPath><clipPath id="clip51"><rect x="2631" y="508" width="3023" height="1815"/></clipPath><clipPath id="clip52"><rect x="2631" y="508" width="3023" height="1815"/></clipPath><clipPath id="clip53"><rect x="2631" y="508" width="3023" height="1815"/></clipPath><clipPath id="clip54"><rect x="2631" y="508" width="3023" height="1815"/></clipPath><clipPath id="clip55"><rect x="2631" y="508" width="3023" height="1815"/></clipPath><clipPath id="clip56"><rect x="2631" y="508" width="3023" height="1815"/></clipPath><clipPath id="clip57"><rect x="2631" y="508" width="3023" height="1815"/></clipPath><clipPath id="clip58"><rect x="2631" y="508" width="3023" height="1815"/></clipPath><clipPath id="clip59"><rect x="2631" y="508" width="3023" height="1815"/></clipPath><clipPath id="clip60"><rect x="2631" y="508" width="3023" height="1815"/></clipPath><clipPath id="clip61"><rect x="2631" y="508" width="3023" height="1815"/></clipPath><clipPath id="clip62"><rect x="2631" y="508" width="3023" height="1815"/></clipPath><clipPath id="clip63"><rect x="2631" y="508" width="3023" height="1815"/></clipPath><clipPath id="clip64"><rect x="2631" y="508" width="3023" height="1815"/></clipPath><clipPath id="clip65"><rect x="2631" y="508" width="3023" height="1815"/></clipPath><clipPath id="clip66"><rect x="2631" y="508" width="3023" height="1815"/></clipPath><clipPath id="clip67"><rect x="2631" y="508" width="3023" height="1815"/></clipPath><clipPath id="clip68"><rect x="2631" y="508" width="3023" height="1815"/></clipPath><clipPath id="clip69"><rect x="2631" y="508" width="3023" height="1815"/></clipPath><clipPath id="clip70"><rect x="2631" y="508" width="3023" height="1815"/></clipPath><clipPath id="clip71"><rect x="2631" y="508" width="3023" height="1815"/></clipPath><clipPath id="clip72"><rect x="2631" y="508" width="3023" height="1815"/></clipPath><clipPath id="clip73"><rect x="2631" y="508" width="3023" height="1815"/></clipPath><clipPath id="clip74"><rect x="2631" y="508" width="3023" height="1815"/></clipPath><clipPath id="clip75"><rect x="2631" y="508" width="3023" height="1815"/></clipPath><clipPath id="clip76"><rect x="2631" y="508" width="3023" height="1815"/></clipPath><clipPath id="clip77"><rect x="2631" y="508" width="3023" height="1815"/></clipPath></defs><g clip-path="url(#clip0)" transform="translate(-2630 -508)"><rect x="2631" y="509" width="3024" height="1815" fill="#FFFFFF"/><g clip-path="url(#clip1)"><path d="M2762.5 1881.56 5492.5 1881.56M2762.5 1748.56 5492.5 1748.56M2762.5 1614.55 5492.5 1614.55M2762.5 1480.55 5492.5 1480.55M2762.5 1347.54 5492.5 1347.54M2762.5 1213.54 5492.5 1213.54M2762.5 1079.54 5492.5 1079.54M2762.5 946.531 5492.5 946.531M2762.5 812.527 5492.5 812.527M2762.5 678.5 5492.5 678.5" stroke="#D9D9D9" stroke-width="3.4375" stroke-linejoin="round" stroke-miterlimit="10" fill="none"/></g><g clip-path="url(#clip2)"><path d="M2821.09 748.025 2874.09 748.025 2874.09 2015 2821.09 2015ZM2991.1 887.029 3045.1 887.029 3045.1 2015 2991.1 2015ZM3162.1 973.032 3215.11 973.032 3215.11 2015 3162.1 2015ZM3333.11 978.032 3386.11 978.032 3386.11 2015 3333.11 2015ZM3503.11 1010.03 3557.12 1010.03 3557.12 2015 3503.11 2015ZM3674.12 1026.03 3727.12 1026.03 3727.12 2015 3674.12 2015ZM3845.13 1021.03 3898.13 1021.03 3898.13 2015 3845.13 2015ZM4015.13 1021.03 4069.13 1021.03 4069.13 2015 4015.13 2015ZM4186.14 1045.03 4239.14 1045.03 4239.14 2015 4186.14 2015ZM4356.14 1040.03 4410.14 1040.03 4410.14 2015 4356.14 2015ZM4527.15 1018.03 4581.15 1018.03 4581.15 2015 4527.15 2015ZM4698.15 1018.03 4751.16 1018.03 4751.16 2015 4698.15 2015ZM4868.16 1032.03 4922.16 1032.03 4922.16 2015 4868.16 2015ZM5039.17 1042.03 5093.17 1042.03 5093.17 2015 5039.17 2015ZM5210.17 1016.03 5263.17 1016.03 5263.17 2015 5210.17 2015ZM5380.18 1042.03 5434.18 1042.03 5434.18 2015 5380.18 2015Z" fill="#5B9BD5"/></g><g clip-path="url(#clip3)"><path d="M2762.5 2015.5 5492.5 2015.5" stroke="#D9D9D9" stroke-width="3.4375" stroke-linejoin="round" stroke-miterlimit="10" fill="none" fill-rule="evenodd"/></g><g clip-path="url(#clip4)"><path d="M2847 1061 3018.1 943.031 3189.1 855.028 3359.11 849.028 3530.12 812.027 3701.12 792.026 3871.13 799.026 4042.13 799.026 4213.14 769 4383.14 776.025 4554.15 802.026 4725.16 802.026 4895.16 786.026 5066.17 772.025 5236.17 805.026 5407 772.025" stroke="#ED7D31" stroke-width="10.3125" stroke-linecap="round" stroke-linejoin="round" stroke-miterlimit="10" fill="none"/></g><g clip-path="url(#clip5)"><text fill="#404040" font-family="Calibri,Calibri_MSFontService,sans-serif" font-weight="400" font-size="41" transform="matrix(1 0 0 1 2816.14 716)">474</text></g><g clip-path="url(#clip6)"><text fill="#404040" font-family="Calibri,Calibri_MSFontService,sans-serif" font-weight="400" font-size="41" transform="matrix(1 0 0 1 2986.8 855)">422</text></g><g clip-path="url(#clip7)"><text fill="#404040" font-family="Calibri,Calibri_MSFontService,sans-serif" font-weight="400" font-size="41" transform="matrix(1 0 0 1 3157.45 941)">390</text></g><g clip-path="url(#clip8)"><text fill="#404040" font-family="Calibri,Calibri_MSFontService,sans-serif" font-weight="400" font-size="41" transform="matrix(1 0 0 1 3328.1 946)">388</text></g><g clip-path="url(#clip9)"><text fill="#404040" font-family="Calibri,Calibri_MSFontService,sans-serif" font-weight="400" font-size="41" transform="matrix(1 0 0 1 3498.76 978)">376</text></g><g clip-path="url(#clip10)"><text fill="#404040" font-family="Calibri,Calibri_MSFontService,sans-serif" font-weight="400" font-size="41" transform="matrix(1 0 0 1 3669.41 994)">370</text></g><g clip-path="url(#clip11)"><text fill="#404040" font-family="Calibri,Calibri_MSFontService,sans-serif" font-weight="400" font-size="41" transform="matrix(1 0 0 1 3840.06 989)">372</text></g><g clip-path="url(#clip12)"><text fill="#404040" font-family="Calibri,Calibri_MSFontService,sans-serif" font-weight="400" font-size="41" transform="matrix(1 0 0 1 4010.72 989)">372</text></g><g clip-path="url(#clip13)"><text fill="#404040" font-family="Calibri,Calibri_MSFontService,sans-serif" font-weight="400" font-size="41" transform="matrix(1 0 0 1 4181.37 1013)">363</text></g><g clip-path="url(#clip14)"><text fill="#404040" font-family="Calibri,Calibri_MSFontService,sans-serif" font-weight="400" font-size="41" transform="matrix(1 0 0 1 4352.03 1008)">365</text></g><g clip-path="url(#clip15)"><text fill="#404040" font-family="Calibri,Calibri_MSFontService,sans-serif" font-weight="400" font-size="41" transform="matrix(1 0 0 1 4522.68 986)">373</text></g><g clip-path="url(#clip16)"><text fill="#404040" font-family="Calibri,Calibri_MSFontService,sans-serif" font-weight="400" font-size="41" transform="matrix(1 0 0 1 4693.33 986)">373</text></g><g clip-path="url(#clip17)"><text fill="#404040" font-family="Calibri,Calibri_MSFontService,sans-serif" font-weight="400" font-size="41" transform="matrix(1 0 0 1 4863.99 1000)">368</text></g><g clip-path="url(#clip18)"><text fill="#404040" font-family="Calibri,Calibri_MSFontService,sans-serif" font-weight="400" font-size="41" transform="matrix(1 0 0 1 5034.64 1010)">364</text></g><g clip-path="url(#clip19)"><text fill="#404040" font-family="Calibri,Calibri_MSFontService,sans-serif" font-weight="400" font-size="41" transform="matrix(1 0 0 1 5205.29 984)">374</text></g><g clip-path="url(#clip20)"><text fill="#404040" font-family="Calibri,Calibri_MSFontService,sans-serif" font-weight="400" font-size="41" transform="matrix(1 0 0 1 5375.95 1010)">364</text></g><g clip-path="url(#clip21)"><text fill="#404040" font-family="Calibri,Calibri_MSFontService,sans-serif" font-weight="400" font-size="41" transform="matrix(1 0 0 1 2886.45 1074)">1.000</text></g><g clip-path="url(#clip22)"><text fill="#404040" font-family="Calibri,Calibri_MSFontService,sans-serif" font-weight="400" font-size="41" transform="matrix(1 0 0 1 3057.1 957)">1.123</text></g><g clip-path="url(#clip23)"><text fill="#404040" font-family="Calibri,Calibri_MSFontService,sans-serif" font-weight="400" font-size="41" transform="matrix(1 0 0 1 3227.76 869)">1.215</text></g><g clip-path="url(#clip24)"><text fill="#404040" font-family="Calibri,Calibri_MSFontService,sans-serif" font-weight="400" font-size="41" transform="matrix(1 0 0 1 3398.41 863)">1.222</text></g><g clip-path="url(#clip25)"><text fill="#404040" font-family="Calibri,Calibri_MSFontService,sans-serif" font-weight="400" font-size="41" transform="matrix(1 0 0 1 3569.06 826)">1.261</text></g><g clip-path="url(#clip26)"><text fill="#404040" font-family="Calibri,Calibri_MSFontService,sans-serif" font-weight="400" font-size="41" transform="matrix(1 0 0 1 3739.72 806)">1.281</text></g><g clip-path="url(#clip27)"><text fill="#404040" font-family="Calibri,Calibri_MSFontService,sans-serif" font-weight="400" font-size="41" transform="matrix(1 0 0 1 3910.37 813)">1.274</text></g><g clip-path="url(#clip28)"><text fill="#404040" font-family="Calibri,Calibri_MSFontService,sans-serif" font-weight="400" font-size="41" transform="matrix(1 0 0 1 4081.03 813)">1.274</text></g><g clip-path="url(#clip29)"><text fill="#404040" font-family="Calibri,Calibri_MSFontService,sans-serif" font-weight="400" font-size="41" transform="matrix(1 0 0 1 4251.68 783)">1.306</text></g><g clip-path="url(#clip30)"><text fill="#404040" font-family="Calibri,Calibri_MSFontService,sans-serif" font-weight="400" font-size="41" transform="matrix(1 0 0 1 4422.33 789)">1.299</text></g><g clip-path="url(#clip31)"><text fill="#404040" font-family="Calibri,Calibri_MSFontService,sans-serif" font-weight="400" font-size="41" transform="matrix(1 0 0 1 4592.99 816)">1.271</text></g><g clip-path="url(#clip32)"><text fill="#404040" font-family="Calibri,Calibri_MSFontService,sans-serif" font-weight="400" font-size="41" transform="matrix(1 0 0 1 4763.64 816)">1.271</text></g><g clip-path="url(#clip33)"><text fill="#404040" font-family="Calibri,Calibri_MSFontService,sans-serif" font-weight="400" font-size="41" transform="matrix(1 0 0 1 4934.29 799)">1.288</text></g><g clip-path="url(#clip34)"><text fill="#404040" font-family="Calibri,Calibri_MSFontService,sans-serif" font-weight="400" font-size="41" transform="matrix(1 0 0 1 5104.95 786)">1.302</text></g><g clip-path="url(#clip35)"><text fill="#404040" font-family="Calibri,Calibri_MSFontService,sans-serif" font-weight="400" font-size="41" transform="matrix(1 0 0 1 5275.6 819)">1.267</text></g><g clip-path="url(#clip36)"><text fill="#404040" font-family="Calibri,Calibri_MSFontService,sans-serif" font-weight="400" font-size="41" transform="matrix(1 0 0 1 5446.26 786)">1.302</text></g><g clip-path="url(#clip37)"><text fill="#595959" font-family="Calibri,Calibri_MSFontService,sans-serif" font-weight="400" font-size="41" transform="matrix(1 0 0 1 5530.89 2027)">0.000</text></g><g clip-path="url(#clip38)"><text fill="#595959" font-family="Calibri,Calibri_MSFontService,sans-serif" font-weight="400" font-size="41" transform="matrix(1 0 0 1 5530.89 1836)">0.200</text></g><g clip-path="url(#clip39)"><text fill="#595959" font-family="Calibri,Calibri_MSFontService,sans-serif" font-weight="400" font-size="41" transform="matrix(1 0 0 1 5530.89 1645)">0.400</text></g><g clip-path="url(#clip40)"><text fill="#595959" font-family="Calibri,Calibri_MSFontService,sans-serif" font-weight="400" font-size="41" transform="matrix(1 0 0 1 5530.89 1454)">0.600</text></g><g clip-path="url(#clip41)"><text fill="#595959" font-family="Calibri,Calibri_MSFontService,sans-serif" font-weight="400" font-size="41" transform="matrix(1 0 0 1 5530.89 1263)">0.800</text></g><g clip-path="url(#clip42)"><text fill="#595959" font-family="Calibri,Calibri_MSFontService,sans-serif" font-weight="400" font-size="41" transform="matrix(1 0 0 1 5530.89 1072)">1.000</text></g><g clip-path="url(#clip43)"><text fill="#595959" font-family="Calibri,Calibri_MSFontService,sans-serif" font-weight="400" font-size="41" transform="matrix(1 0 0 1 5530.89 881)">1.200</text></g><g clip-path="url(#clip44)"><text fill="#595959" font-family="Calibri,Calibri_MSFontService,sans-serif" font-weight="400" font-size="41" transform="matrix(1 0 0 1 5530.89 690)">1.400</text></g><g clip-path="url(#clip45)"><text fill="#595959" font-family="Calibri,Calibri_MSFontService,sans-serif" font-weight="400" font-size="41" transform="matrix(1 0 0 1 2703 2027)">0</text></g><g clip-path="url(#clip46)"><text fill="#595959" font-family="Calibri,Calibri_MSFontService,sans-serif" font-weight="400" font-size="41" transform="matrix(1 0 0 1 2682.1 1893)">50</text></g><g clip-path="url(#clip47)"><text fill="#595959" font-family="Calibri,Calibri_MSFontService,sans-serif" font-weight="400" font-size="41" transform="matrix(1 0 0 1 2661.2 1760)">100</text></g><g clip-path="url(#clip48)"><text fill="#595959" font-family="Calibri,Calibri_MSFontService,sans-serif" font-weight="400" font-size="41" transform="matrix(1 0 0 1 2661.2 1626)">150</text></g><g clip-path="url(#clip49)"><text fill="#595959" font-family="Calibri,Calibri_MSFontService,sans-serif" font-weight="400" font-size="41" transform="matrix(1 0 0 1 2661.2 1492)">200</text></g><g clip-path="url(#clip50)"><text fill="#595959" font-family="Calibri,Calibri_MSFontService,sans-serif" font-weight="400" font-size="41" transform="matrix(1 0 0 1 2661.2 1359)">250</text></g><g clip-path="url(#clip51)"><text fill="#595959" font-family="Calibri,Calibri_MSFontService,sans-serif" font-weight="400" font-size="41" transform="matrix(1 0 0 1 2661.2 1225)">300</text></g><g clip-path="url(#clip52)"><text fill="#595959" font-family="Calibri,Calibri_MSFontService,sans-serif" font-weight="400" font-size="41" transform="matrix(1 0 0 1 2661.2 1091)">350</text></g><g clip-path="url(#clip53)"><text fill="#595959" font-family="Calibri,Calibri_MSFontService,sans-serif" font-weight="400" font-size="41" transform="matrix(1 0 0 1 2661.2 958)">400</text></g><g clip-path="url(#clip54)"><text fill="#595959" font-family="Calibri,Calibri_MSFontService,sans-serif" font-weight="400" font-size="41" transform="matrix(1 0 0 1 2661.2 824)">450</text></g><g clip-path="url(#clip55)"><text fill="#595959" font-family="Calibri,Calibri_MSFontService,sans-serif" font-weight="400" font-size="41" transform="matrix(1 0 0 1 2661.2 690)">500</text></g><g clip-path="url(#clip56)"><text fill="#595959" font-family="Calibri,Calibri_MSFontService,sans-serif" font-weight="400" font-size="41" transform="matrix(1 0 0 1 2837.04 2081)">1</text></g><g clip-path="url(#clip57)"><text fill="#595959" font-family="Calibri,Calibri_MSFontService,sans-serif" font-weight="400" font-size="41" transform="matrix(1 0 0 1 3007.7 2081)">2</text></g><g clip-path="url(#clip58)"><text fill="#595959" font-family="Calibri,Calibri_MSFontService,sans-serif" font-weight="400" font-size="41" transform="matrix(1 0 0 1 3178.35 2081)">3</text></g><g clip-path="url(#clip59)"><text fill="#595959" font-family="Calibri,Calibri_MSFontService,sans-serif" font-weight="400" font-size="41" transform="matrix(1 0 0 1 3349 2081)">4</text></g><g clip-path="url(#clip60)"><text fill="#595959" font-family="Calibri,Calibri_MSFontService,sans-serif" font-weight="400" font-size="41" transform="matrix(1 0 0 1 3519.66 2081)">5</text></g><g clip-path="url(#clip61)"><text fill="#595959" font-family="Calibri,Calibri_MSFontService,sans-serif" font-weight="400" font-size="41" transform="matrix(1 0 0 1 3690.31 2081)">6</text></g><g clip-path="url(#clip62)"><text fill="#595959" font-family="Calibri,Calibri_MSFontService,sans-serif" font-weight="400" font-size="41" transform="matrix(1 0 0 1 3860.96 2081)">7</text></g><g clip-path="url(#clip63)"><text fill="#595959" font-family="Calibri,Calibri_MSFontService,sans-serif" font-weight="400" font-size="41" transform="matrix(1 0 0 1 4031.62 2081)">8</text></g><g clip-path="url(#clip64)"><text fill="#595959" font-family="Calibri,Calibri_MSFontService,sans-serif" font-weight="400" font-size="41" transform="matrix(1 0 0 1 4202.27 2081)">9</text></g><g clip-path="url(#clip65)"><text fill="#595959" font-family="Calibri,Calibri_MSFontService,sans-serif" font-weight="400" font-size="41" transform="matrix(1 0 0 1 4362.48 2081)">10</text></g><g clip-path="url(#clip66)"><text fill="#595959" font-family="Calibri,Calibri_MSFontService,sans-serif" font-weight="400" font-size="41" transform="matrix(1 0 0 1 4533.13 2081)">11</text></g><g clip-path="url(#clip67)"><text fill="#595959" font-family="Calibri,Calibri_MSFontService,sans-serif" font-weight="400" font-size="41" transform="matrix(1 0 0 1 4703.78 2081)">12</text></g><g clip-path="url(#clip68)"><text fill="#595959" font-family="Calibri,Calibri_MSFontService,sans-serif" font-weight="400" font-size="41" transform="matrix(1 0 0 1 4874.44 2081)">13</text></g><g clip-path="url(#clip69)"><text fill="#595959" font-family="Calibri,Calibri_MSFontService,sans-serif" font-weight="400" font-size="41" transform="matrix(1 0 0 1 5045.09 2081)">14</text></g><g clip-path="url(#clip70)"><text fill="#595959" font-family="Calibri,Calibri_MSFontService,sans-serif" font-weight="400" font-size="41" transform="matrix(1 0 0 1 5215.74 2081)">15</text></g><g clip-path="url(#clip71)"><text fill="#595959" font-family="Calibri,Calibri_MSFontService,sans-serif" font-weight="400" font-size="41" transform="matrix(1 0 0 1 5386.4 2081)">16</text></g><g clip-path="url(#clip72)"><text fill="#595959" font-family="Calibri,Calibri_MSFontService,sans-serif" font-weight="400" font-size="46" transform="matrix(1 0 0 1 3871.36 2150)">Number of Worker Threads</text></g><g clip-path="url(#clip73)"><text fill="#595959" font-family="Calibri,Calibri_MSFontService,sans-serif" font-weight="400" font-size="64" transform="matrix(1 0 0 1 3964.46 604)">Testing Result</text></g><g clip-path="url(#clip74)"><rect x="3776" y="2246" width="88" height="23" fill="#5B9BD5"/></g><g clip-path="url(#clip75)"><text fill="#595959" font-family="Calibri,Calibri_MSFontService,sans-serif" font-weight="400" font-size="41" transform="matrix(1 0 0 1 3873.55 2269)">Time (s)</text></g><g clip-path="url(#clip76)"><path d="M4067 2258 4155 2258" stroke="#ED7D31" stroke-width="10.3125" stroke-linecap="round" stroke-linejoin="round" stroke-miterlimit="10" fill="none" fill-rule="evenodd"/></g><g clip-path="url(#clip77)"><text fill="#595959" font-family="Calibri,Calibri_MSFontService,sans-serif" font-weight="400" font-size="41" transform="matrix(1 0 0 1 4164.74 2269)">Relative Performance</text></g><rect x="2631.5" y="509.5" width="3024" height="1815" stroke="#D9D9D9" stroke-width="3.4375" stroke-linejoin="round" stroke-miterlimit="10" fill="none"/></g></svg>