<svg width="3936" height="2200" xmlns="http://www.w3.org/2000/svg" xmlns:xlink="http://www.w3.org/1999/xlink" overflow="hidden"><defs><clipPath id="clip0"><rect x="1556" y="88" width="3936" height="2200"/></clipPath><clipPath id="clip1"><rect x="1557" y="89" width="3932" height="2196"/></clipPath><clipPath id="clip2"><rect x="1687" y="259" width="3755" height="1819"/></clipPath><clipPath id="clip3"><rect x="1687" y="259" width="3755" height="1819"/></clipPath><clipPath id="clip4"><rect x="1557" y="89" width="3932" height="2196"/></clipPath><clipPath id="clip5"><rect x="1557" y="89" width="3932" height="2196"/></clipPath><clipPath id="clip6"><rect x="1557" y="89" width="3932" height="2196"/></clipPath><clipPath id="clip7"><rect x="1557" y="89" width="3932" height="2196"/></clipPath><clipPath id="clip8"><rect x="1557" y="89" width="3932" height="2196"/></clipPath><clipPath id="clip9"><rect x="1557" y="89" width="3932" height="2196"/></clipPath><clipPath id="clip10"><rect x="1557" y="89" width="3932" height="2196"/></clipPath><clipPath id="clip11"><rect x="1557" y="89" width="3932" height="2196"/></clipPath><clipPath id="clip12"><rect x="1557" y="89" width="3932" height="2196"/></clipPath><clipPath id="clip13"><rect x="1557" y="89" width="3932" height="2196"/></clipPath><clipPath id="clip14"><rect x="1557" y="89" width="3932" height="2196"/></clipPath><clipPath id="clip15"><rect x="1557" y="89" width="3932" height="2196"/></clipPath><clipPath id="clip16"><rect x="1557" y="89" width="3932" height="2196"/></clipPath><clipPath id="clip17"><rect x="1557" y="89" width="3932" height="2196"/></clipPath><clipPath id="clip18"><rect x="1557" y="89" width="3932" height="2196"/></clipPath><clipPath id="clip19"><rect x="1557" y="89" width="3932" height="2196"/></clipPath><clipPath id="clip20"><rect x="1557" y="89" width="3932" height="2196"/></clipPath><clipPath id="clip21"><rect x="1557" y="89" width="3932" height="2196"/></clipPath><clipPath id="clip22"><rect x="1557" y="89" width="3932" height="2196"/></clipPath><clipPath id="clip23"><rect x="1557" y="89" width="3932" height="2196"/></clipPath><clipPath id="clip24"><rect x="1557" y="89" width="3932" height="2196"/></clipPath><clipPath id="clip25"><rect x="1557" y="89" width="3932" height="2196"/></clipPath><clipPath id="clip26"><rect x="1557" y="89" width="3932" height="2196"/></clipPath><clipPath id="clip27"><rect x="1557" y="89" width="3932" height="2196"/></clipPath><clipPath id="clip28"><rect x="1557" y="89" width="3932" height="2196"/></clipPath><clipPath id="clip29"><rect x="1557" y="89" width="3932" height="2196"/></clipPath><clipPath id="clip30"><rect x="1557" y="89" width="3932" height="2196"/></clipPath><clipPath id="clip31"><rect x="1557" y="89" width="3932" height="2196"/></clipPath><clipPath id="clip32"><rect x="1557" y="89" width="3932" height="2196"/></clipPath><clipPath id="clip33"><rect x="1557" y="89" width="3932" height="2196"/></clipPath><clipPath id="clip34"><rect x="1557" y="89" width="3932" height="2196"/></clipPath><clipPath id="clip35"><rect x="1557" y="89" width="3932" height="2196"/></clipPath><clipPath id="clip36"><rect x="1557" y="89" width="3932" height="2196"/></clipPath><clipPath id="clip37"><rect x="1557" y="89" width="3932" height="2196"/></clipPath><clipPath id="clip38"><rect x="1557" y="89" width="3932" height="2196"/></clipPath><clipPath id="clip39"><rect x="1557" y="89" width="3932" height="2196"/></clipPath><clipPath id="clip40"><rect x="1557" y="89" width="3932" height="2196"/></clipPath><clipPath id="clip41"><rect x="1557" y="89" width="3932" height="2196"/></clipPath><clipPath id="clip42"><rect x="1557" y="89" width="3932" height="2196"/></clipPath><clipPath id="clip43"><rect x="1557" y="89" width="3932" height="2196"/></clipPath><clipPath id="clip44"><rect x="1557" y="89" width="3932" height="2196"/></clipPath><clipPath id="clip45"><rect x="1557" y="89" width="3932" height="2196"/></clipPath><clipPath id="clip46"><rect x="1557" y="89" width="3932" height="2196"/></clipPath><clipPath id="clip47"><rect x="1557" y="89" width="3932" height="2196"/></clipPath><clipPath id="clip48"><rect x="1557" y="89" width="3932" height="2196"/></clipPath><clipPath id="clip49"><rect x="1557" y="89" width="3932" height="2196"/></clipPath><clipPath id="clip50"><rect x="1557" y="89" width="3932" height="2196"/></clipPath><clipPath id="clip51"><rect x="1557" y="89" width="3932" height="2196"/></clipPath><clipPath id="clip52"><rect x="1557" y="89" width="3932" height="2196"/></clipPath><clipPath id="clip53"><rect x="1557" y="89" width="3932" height="2196"/></clipPath><clipPath id="clip54"><rect x="1557" y="89" width="3932" height="2196"/></clipPath><clipPath id="clip55"><rect x="1557" y="89" width="3932" height="2196"/></clipPath><clipPath id="clip56"><rect x="1557" y="89" width="3932" height="2196"/></clipPath><clipPath id="clip57"><rect x="1557" y="89" width="3932" height="2196"/></clipPath><clipPath id="clip58"><rect x="1557" y="89" width="3932" height="2196"/></clipPath><clipPath id="clip59"><rect x="1557" y="89" width="3932" height="2196"/></clipPath><clipPath id="clip60"><rect x="1557" y="89" width="3932" height="2196"/></clipPath><clipPath id="clip61"><rect x="1557" y="89" width="3932" height="2196"/></clipPath><clipPath id="clip62"><rect x="1557" y="89" width="3932" height="2196"/></clipPath><clipPath id="clip63"><rect x="1557" y="89" width="3932" height="2196"/></clipPath><clipPath id="clip64"><rect x="1557" y="89" width="3932" height="2196"/></clipPath><clipPath id="clip65"><rect x="1557" y="89" width="3932" height="2196"/></clipPath><clipPath id="clip66"><rect x="1557" y="89" width="3932" height="2196"/></clipPath><clipPath id="clip67"><rect x="1557" y="89" width="3932" height="2196"/></clipPath><clipPath id="clip68"><rect x="1557" y="89" width="3932" height="2196"/></clipPath><clipPath id="clip69"><rect x="1557" y="89" width="3932" height="2196"/></clipPath><clipPath id="clip70"><rect x="1557" y="89" width="3932" height="2196"/></clipPath><clipPath id="clip71"><rect x="1557" y="89" width="3932" height="2196"/></clipPath><clipPath id="clip72"><rect x="1557" y="89" width="3932" height="2196"/></clipPath><clipPath id="clip73"><rect x="1557" y="89" width="3932" height="2196"/></clipPath><clipPath id="clip74"><rect x="1557" y="89" width="3932" height="2196"/></clipPath><clipPath id="clip75"><rect x="1557" y="89" width="3932" height="2196"/></clipPath><clipPath id="clip76"><rect x="1557" y="89" width="3932" height="2196"/></clipPath><clipPath id="clip77"><rect x="1557" y="89" width="3932" height="2196"/></clipPath></defs><g clip-path="url(#clip0)" transform="translate(-1556 -88)"><rect x="1557" y="89" width="3933" height="2197" fill="#FFFFFF"/><g clip-path="url(#clip1)"><path d="M1687.5 1893.56 5439.5 1893.56M1687.5 1711.56 5439.5 1711.56M1687.5 1530.55 5439.5 1530.55M1687.5 1348.54 5439.5 1348.54M1687.5 1167.54 5439.5 1167.54M1687.5 985.532 5439.5 985.532M1687.5 803.526 5439.5 803.526M1687.5 622.521 5439.5 622.521M1687.5 440.515 5439.5 440.515M1687.5 259.5 5439.5 259.5" stroke="#D9D9D9" stroke-width="3.4375" stroke-linejoin="round" stroke-miterlimit="10" fill="none"/></g><g clip-path="url(#clip2)"><path d="M1736.06 2071.07 1781.06 2071.07 1781.06 2075 1736.06 2075ZM1934.06 1316.04 1978.06 1316.04 1978.06 2075 1934.06 2075ZM2131.07 1295.04 2175.07 1295.04 2175.07 2075 2131.07 2075ZM2329.08 1646.05 2373.08 1646.05 2373.08 2075 2329.08 2075ZM2526.08 1664.05 2570.08 1664.05 2570.08 2075 2526.08 2075ZM2724.09 1759.06 2768.09 1759.06 2768.09 2075 2724.09 2075ZM2921.1 1792.06 2965.1 1792.06 2965.1 2075 2921.1 2075ZM3118.1 1981.07 3163.1 1981.07 3163.1 2075 3118.1 2075ZM3316.11 1569.05 3360.11 1569.05 3360.11 2075 3316.11 2075ZM3513.12 1879.06 3558.12 1879.06 3558.12 2075 3513.12 2075ZM3711.12 1996.07 3755.12 1996.07 3755.12 2075 3711.12 2075ZM3908.13 2024.07 3952.13 2024.07 3952.13 2075 3908.13 2075ZM4106.13 1972.06 4150.14 1972.06 4150.14 2075 4106.13 2075ZM4303.14 1584.05 4347.14 1584.05 4347.14 2075 4303.14 2075ZM4500.15 1928.06 4545.15 1928.06 4545.15 2075 4500.15 2075ZM4698.15 1834.06 4742.16 1834.06 4742.16 2075 4698.15 2075ZM4895.16 1809.06 4940.16 1809.06 4940.16 2075 4895.16 2075ZM5093.17 2034.07 5137.17 2034.07 5137.17 2075 5093.17 2075ZM5290.17 1988.07 5334.17 1988.07 5334.17 2075 5290.17 2075Z" fill="#5B9BD5"/></g><g clip-path="url(#clip3)"><path d="M1793.06 1393.05 1837.06 1393.05 1837.06 2075 1793.06 2075ZM1990.07 2048.07 2034.07 2048.07 2034.07 2075 1990.07 2075ZM2187.07 1875.06 2232.07 1875.06 2232.07 2075 2187.07 2075ZM2385.08 2053.07 2429.08 2053.07 2429.08 2075 2385.08 2075ZM2582.08 1959.06 2627.09 1959.06 2627.09 2075 2582.08 2075ZM2780.09 1980.06 2824.09 1980.06 2824.09 2075 2780.09 2075ZM2977.1 1674.05 3021.1 1674.05 3021.1 2075 2977.1 2075ZM3175.1 1424.05 3219.11 1424.05 3219.11 2075 3175.1 2075ZM3372.11 357.012 3416.11 357.012 3416.11 2075 3372.11 2075ZM3569.12 1978.06 3614.12 1978.06 3614.12 2075 3569.12 2075ZM3767.12 2018.07 3811.12 2018.07 3811.12 2075 3767.12 2075ZM3964.13 1976.06 4009.13 1976.06 4009.13 2075 3964.13 2075ZM4162.14 651.021 4206.14 651.021 4206.14 2075 4162.14 2075ZM4359.14 1943.06 4403.14 1943.06 4403.14 2075 4359.14 2075ZM4557.15 1975.06 4601.15 1975.06 4601.15 2075 4557.15 2075ZM4754.16 2038.07 4798.16 2038.07 4798.16 2075 4754.16 2075ZM4951.16 1964.06 4996.16 1964.06 4996.16 2075 4951.16 2075ZM5149.17 1943.06 5193.17 1943.06 5193.17 2075 5149.17 2075ZM5346.18 1518.05 5391.18 1518.05 5391.18 2075 5346.18 2075Z" fill="#ED7D31"/></g><g clip-path="url(#clip4)"><path d="M1687.5 2074.5 5439.5 2074.5" stroke="#D9D9D9" stroke-width="3.4375" stroke-linejoin="round" stroke-miterlimit="10" fill="none" fill-rule="evenodd"/></g><g clip-path="url(#clip5)"><text fill="#404040" font-family="Calibri,Calibri_MSFontService,sans-serif" font-weight="400" font-size="41" transform="matrix(1 0 0 1 1722 2039)">0.21</text></g><g clip-path="url(#clip6)"><text fill="#404040" font-family="Calibri,Calibri_MSFontService,sans-serif" font-weight="400" font-size="41" transform="matrix(1 0 0 1 1898.54 1284)">41.816</text></g><g clip-path="url(#clip7)"><text fill="#404040" font-family="Calibri,Calibri_MSFontService,sans-serif" font-weight="400" font-size="41" transform="matrix(1 0 0 1 2095.98 1263)">42.969</text></g><g clip-path="url(#clip8)"><text fill="#404040" font-family="Calibri,Calibri_MSFontService,sans-serif" font-weight="400" font-size="41" transform="matrix(1 0 0 1 2293.42 1614)">23.594</text></g><g clip-path="url(#clip9)"><text fill="#404040" font-family="Calibri,Calibri_MSFontService,sans-serif" font-weight="400" font-size="41" transform="matrix(1 0 0 1 2490.85 1632)">22.624</text></g><g clip-path="url(#clip10)"><text fill="#404040" font-family="Calibri,Calibri_MSFontService,sans-serif" font-weight="400" font-size="41" transform="matrix(1 0 0 1 2688.29 1728)">17.366</text></g><g clip-path="url(#clip11)"><text fill="#404040" font-family="Calibri,Calibri_MSFontService,sans-serif" font-weight="400" font-size="41" transform="matrix(1 0 0 1 2885.73 1760)">15.578</text></g><g clip-path="url(#clip12)"><text fill="#404040" font-family="Calibri,Calibri_MSFontService,sans-serif" font-weight="400" font-size="41" transform="matrix(1 0 0 1 3093.62 1949)">5.188</text></g><g clip-path="url(#clip13)"><text fill="#404040" font-family="Calibri,Calibri_MSFontService,sans-serif" font-weight="400" font-size="41" transform="matrix(1 0 0 1 3280.61 1537)">27.861</text></g><g clip-path="url(#clip14)"><text fill="#404040" font-family="Calibri,Calibri_MSFontService,sans-serif" font-weight="400" font-size="41" transform="matrix(1 0 0 1 3478.05 1847)">10.791</text></g><g clip-path="url(#clip15)"><text fill="#404040" font-family="Calibri,Calibri_MSFontService,sans-serif" font-weight="400" font-size="41" transform="matrix(1 0 0 1 3685.93 1964)">4.346</text></g><g clip-path="url(#clip16)"><text fill="#404040" font-family="Calibri,Calibri_MSFontService,sans-serif" font-weight="400" font-size="41" transform="matrix(1 0 0 1 3883.37 1992)">2.811</text></g><g clip-path="url(#clip17)"><text fill="#404040" font-family="Calibri,Calibri_MSFontService,sans-serif" font-weight="400" font-size="41" transform="matrix(1 0 0 1 4080.81 1940)">5.651</text></g><g clip-path="url(#clip18)"><text fill="#404040" font-family="Calibri,Calibri_MSFontService,sans-serif" font-weight="400" font-size="41" transform="matrix(1 0 0 1 4267.8 1552)">27.018</text></g><g clip-path="url(#clip19)"><text fill="#404040" font-family="Calibri,Calibri_MSFontService,sans-serif" font-weight="400" font-size="41" transform="matrix(1 0 0 1 4475.69 1896)">8.102</text></g><g clip-path="url(#clip20)"><text fill="#404040" font-family="Calibri,Calibri_MSFontService,sans-serif" font-weight="400" font-size="41" transform="matrix(1 0 0 1 4662.67 1803)">13.233</text></g><g clip-path="url(#clip21)"><text fill="#404040" font-family="Calibri,Calibri_MSFontService,sans-serif" font-weight="400" font-size="41" transform="matrix(1 0 0 1 4870.56 1778)">14.61</text></g><g clip-path="url(#clip22)"><text fill="#404040" font-family="Calibri,Calibri_MSFontService,sans-serif" font-weight="400" font-size="41" transform="matrix(1 0 0 1 5068 2002)">2.249</text></g><g clip-path="url(#clip23)"><text fill="#404040" font-family="Calibri,Calibri_MSFontService,sans-serif" font-weight="400" font-size="41" transform="matrix(1 0 0 1 5265.44 1956)">4.761</text></g><g clip-path="url(#clip24)"><text fill="#404040" font-family="Calibri,Calibri_MSFontService,sans-serif" font-weight="400" font-size="41" transform="matrix(1 0 0 1 1757.32 1361)">37.551</text></g><g clip-path="url(#clip25)"><text fill="#404040" font-family="Calibri,Calibri_MSFontService,sans-serif" font-weight="400" font-size="41" transform="matrix(1 0 0 1 1965.21 2016)">1.487</text></g><g clip-path="url(#clip26)"><text fill="#404040" font-family="Calibri,Calibri_MSFontService,sans-serif" font-weight="400" font-size="41" transform="matrix(1 0 0 1 2152.2 1843)">11.024</text></g><g clip-path="url(#clip27)"><text fill="#404040" font-family="Calibri,Calibri_MSFontService,sans-serif" font-weight="400" font-size="41" transform="matrix(1 0 0 1 2360.09 2021)">1.213</text></g><g clip-path="url(#clip28)"><text fill="#404040" font-family="Calibri,Calibri_MSFontService,sans-serif" font-weight="400" font-size="41" transform="matrix(1 0 0 1 2557.53 1928)">6.351</text></g><g clip-path="url(#clip29)"><text fill="#404040" font-family="Calibri,Calibri_MSFontService,sans-serif" font-weight="400" font-size="41" transform="matrix(1 0 0 1 2754.96 1948)">5.234</text></g><g clip-path="url(#clip30)"><text fill="#404040" font-family="Calibri,Calibri_MSFontService,sans-serif" font-weight="400" font-size="41" transform="matrix(1 0 0 1 2941.95 1643)">22.046</text></g><g clip-path="url(#clip31)"><text fill="#404040" font-family="Calibri,Calibri_MSFontService,sans-serif" font-weight="400" font-size="41" transform="matrix(1 0 0 1 3149.84 1392)">35.84</text></g><g clip-path="url(#clip32)"><text fill="#404040" font-family="Calibri,Calibri_MSFontService,sans-serif" font-weight="400" font-size="41" transform="matrix(1 0 0 1 3336.83 325)">94.626</text></g><g clip-path="url(#clip33)"><text fill="#404040" font-family="Calibri,Calibri_MSFontService,sans-serif" font-weight="400" font-size="41" transform="matrix(1 0 0 1 3544.72 1946)">5.337</text></g><g clip-path="url(#clip34)"><text fill="#404040" font-family="Calibri,Calibri_MSFontService,sans-serif" font-weight="400" font-size="41" transform="matrix(1 0 0 1 3742.15 1986)">3.109</text></g><g clip-path="url(#clip35)"><text fill="#404040" font-family="Calibri,Calibri_MSFontService,sans-serif" font-weight="400" font-size="41" transform="matrix(1 0 0 1 3939.59 1944)">5.461</text></g><g clip-path="url(#clip36)"><text fill="#404040" font-family="Calibri,Calibri_MSFontService,sans-serif" font-weight="400" font-size="41" transform="matrix(1 0 0 1 4116.13 620)">78.3999</text></g><g clip-path="url(#clip37)"><text fill="#404040" font-family="Calibri,Calibri_MSFontService,sans-serif" font-weight="400" font-size="41" transform="matrix(1 0 0 1 4334.47 1911)">7.241</text></g><g clip-path="url(#clip38)"><text fill="#404040" font-family="Calibri,Calibri_MSFontService,sans-serif" font-weight="400" font-size="41" transform="matrix(1 0 0 1 4531.91 1943)">5.486</text></g><g clip-path="url(#clip39)"><text fill="#404040" font-family="Calibri,Calibri_MSFontService,sans-serif" font-weight="400" font-size="41" transform="matrix(1 0 0 1 4729.35 2006)">2.008</text></g><g clip-path="url(#clip40)"><text fill="#404040" font-family="Calibri,Calibri_MSFontService,sans-serif" font-weight="400" font-size="41" transform="matrix(1 0 0 1 4926.78 1932)">6.101</text></g><g clip-path="url(#clip41)"><text fill="#404040" font-family="Calibri,Calibri_MSFontService,sans-serif" font-weight="400" font-size="41" transform="matrix(1 0 0 1 5124.22 1911)">7.265</text></g><g clip-path="url(#clip42)"><text fill="#404040" font-family="Calibri,Calibri_MSFontService,sans-serif" font-weight="400" font-size="41" transform="matrix(1 0 0 1 5311.21 1486)">30.657</text></g><g clip-path="url(#clip43)"><text fill="#595959" font-family="Calibri,Calibri_MSFontService,sans-serif" font-weight="400" font-size="41" transform="matrix(1 0 0 1 1628.78 2086)">0</text></g><g clip-path="url(#clip44)"><text fill="#595959" font-family="Calibri,Calibri_MSFontService,sans-serif" font-weight="400" font-size="41" transform="matrix(1 0 0 1 1607.88 1905)">10</text></g><g clip-path="url(#clip45)"><text fill="#595959" font-family="Calibri,Calibri_MSFontService,sans-serif" font-weight="400" font-size="41" transform="matrix(1 0 0 1 1607.88 1723)">20</text></g><g clip-path="url(#clip46)"><text fill="#595959" font-family="Calibri,Calibri_MSFontService,sans-serif" font-weight="400" font-size="41" transform="matrix(1 0 0 1 1607.88 1542)">30</text></g><g clip-path="url(#clip47)"><text fill="#595959" font-family="Calibri,Calibri_MSFontService,sans-serif" font-weight="400" font-size="41" transform="matrix(1 0 0 1 1607.88 1360)">40</text></g><g clip-path="url(#clip48)"><text fill="#595959" font-family="Calibri,Calibri_MSFontService,sans-serif" font-weight="400" font-size="41" transform="matrix(1 0 0 1 1607.88 1179)">50</text></g><g clip-path="url(#clip49)"><text fill="#595959" font-family="Calibri,Calibri_MSFontService,sans-serif" font-weight="400" font-size="41" transform="matrix(1 0 0 1 1607.88 997)">60</text></g><g clip-path="url(#clip50)"><text fill="#595959" font-family="Calibri,Calibri_MSFontService,sans-serif" font-weight="400" font-size="41" transform="matrix(1 0 0 1 1607.88 816)">70</text></g><g clip-path="url(#clip51)"><text fill="#595959" font-family="Calibri,Calibri_MSFontService,sans-serif" font-weight="400" font-size="41" transform="matrix(1 0 0 1 1607.88 634)">80</text></g><g clip-path="url(#clip52)"><text fill="#595959" font-family="Calibri,Calibri_MSFontService,sans-serif" font-weight="400" font-size="41" transform="matrix(1 0 0 1 1607.88 452)">90</text></g><g clip-path="url(#clip53)"><text fill="#595959" font-family="Calibri,Calibri_MSFontService,sans-serif" font-weight="400" font-size="41" transform="matrix(1 0 0 1 1586.98 271)">100</text></g><g clip-path="url(#clip54)"><text fill="#595959" font-family="Calibri,Calibri_MSFontService,sans-serif" font-weight="400" font-size="41" transform="matrix(1 0 0 1 1776.22 2140)">1</text></g><g clip-path="url(#clip55)"><text fill="#595959" font-family="Calibri,Calibri_MSFontService,sans-serif" font-weight="400" font-size="41" transform="matrix(1 0 0 1 1973.65 2140)">2</text></g><g clip-path="url(#clip56)"><text fill="#595959" font-family="Calibri,Calibri_MSFontService,sans-serif" font-weight="400" font-size="41" transform="matrix(1 0 0 1 2171.09 2140)">3</text></g><g clip-path="url(#clip57)"><text fill="#595959" font-family="Calibri,Calibri_MSFontService,sans-serif" font-weight="400" font-size="41" transform="matrix(1 0 0 1 2368.53 2140)">4</text></g><g clip-path="url(#clip58)"><text fill="#595959" font-family="Calibri,Calibri_MSFontService,sans-serif" font-weight="400" font-size="41" transform="matrix(1 0 0 1 2565.97 2140)">5</text></g><g clip-path="url(#clip59)"><text fill="#595959" font-family="Calibri,Calibri_MSFontService,sans-serif" font-weight="400" font-size="41" transform="matrix(1 0 0 1 2763.41 2140)">6</text></g><g clip-path="url(#clip60)"><text fill="#595959" font-family="Calibri,Calibri_MSFontService,sans-serif" font-weight="400" font-size="41" transform="matrix(1 0 0 1 2960.84 2140)">7</text></g><g clip-path="url(#clip61)"><text fill="#595959" font-family="Calibri,Calibri_MSFontService,sans-serif" font-weight="400" font-size="41" transform="matrix(1 0 0 1 3158.28 2140)">8</text></g><g clip-path="url(#clip62)"><text fill="#595959" font-family="Calibri,Calibri_MSFontService,sans-serif" font-weight="400" font-size="41" transform="matrix(1 0 0 1 3355.72 2140)">9</text></g><g clip-path="url(#clip63)"><text fill="#595959" font-family="Calibri,Calibri_MSFontService,sans-serif" font-weight="400" font-size="41" transform="matrix(1 0 0 1 3542.71 2140)">10</text></g><g clip-path="url(#clip64)"><text fill="#595959" font-family="Calibri,Calibri_MSFontService,sans-serif" font-weight="400" font-size="41" transform="matrix(1 0 0 1 3740.15 2140)">11</text></g><g clip-path="url(#clip65)"><text fill="#595959" font-family="Calibri,Calibri_MSFontService,sans-serif" font-weight="400" font-size="41" transform="matrix(1 0 0 1 3937.58 2140)">12</text></g><g clip-path="url(#clip66)"><text fill="#595959" font-family="Calibri,Calibri_MSFontService,sans-serif" font-weight="400" font-size="41" transform="matrix(1 0 0 1 4135.02 2140)">13</text></g><g clip-path="url(#clip67)"><text fill="#595959" font-family="Calibri,Calibri_MSFontService,sans-serif" font-weight="400" font-size="41" transform="matrix(1 0 0 1 4332.46 2140)">14</text></g><g clip-path="url(#clip68)"><text fill="#595959" font-family="Calibri,Calibri_MSFontService,sans-serif" font-weight="400" font-size="41" transform="matrix(1 0 0 1 4529.9 2140)">15</text></g><g clip-path="url(#clip69)"><text fill="#595959" font-family="Calibri,Calibri_MSFontService,sans-serif" font-weight="400" font-size="41" transform="matrix(1 0 0 1 4727.34 2140)">16</text></g><g clip-path="url(#clip70)"><text fill="#595959" font-family="Calibri,Calibri_MSFontService,sans-serif" font-weight="400" font-size="41" transform="matrix(1 0 0 1 4924.78 2140)">18</text></g><g clip-path="url(#clip71)"><text fill="#595959" font-family="Calibri,Calibri_MSFontService,sans-serif" font-weight="400" font-size="41" transform="matrix(1 0 0 1 5122.21 2140)">19</text></g><g clip-path="url(#clip72)"><text fill="#595959" font-family="Calibri,Calibri_MSFontService,sans-serif" font-weight="400" font-size="41" transform="matrix(1 0 0 1 5319.65 2140)">21</text></g><g clip-path="url(#clip73)"><text fill="#595959" font-family="Calibri,Calibri_MSFontService,sans-serif" font-weight="400" font-size="64" transform="matrix(1 0 0 1 3294.83 185)">Time Comparison</text></g><g clip-path="url(#clip74)"><rect x="3373" y="2208" width="23" height="23" fill="#5B9BD5"/></g><g clip-path="url(#clip75)"><text fill="#595959" font-family="Calibri,Calibri_MSFontService,sans-serif" font-weight="400" font-size="41" transform="matrix(1 0 0 1 3405.19 2231)">PGSQL</text></g><g clip-path="url(#clip76)"><rect x="3550" y="2208" width="23" height="23" fill="#ED7D31"/></g><g clip-path="url(#clip77)"><text fill="#595959" font-family="Calibri,Calibri_MSFontService,sans-serif" font-weight="400" font-size="41" transform="matrix(1 0 0 1 3582.56 2231)">SQLite</text></g><rect x="1557.5" y="89.4999" width="3933" height="2197" stroke="#D9D9D9" stroke-width="3.4375" stroke-linejoin="round" stroke-miterlimit="10" fill="none"/></g></svg>