<svg width="1653" height="992" xmlns="http://www.w3.org/2000/svg" xmlns:xlink="http://www.w3.org/1999/xlink" overflow="hidden"><defs><clipPath id="clip0"><rect x="4072" y="1347" width="1653" height="992"/></clipPath><clipPath id="clip1"><rect x="4073" y="1347" width="1650" height="990"/></clipPath><clipPath id="clip2"><rect x="4193" y="1517" width="1483" height="580"/></clipPath><clipPath id="clip3"><rect x="4073" y="1347" width="1650" height="990"/></clipPath><clipPath id="clip4"><rect x="4073" y="1347" width="1650" height="990"/></clipPath><clipPath id="clip5"><rect x="4073" y="1347" width="1650" height="990"/></clipPath><clipPath id="clip6"><rect x="4073" y="1347" width="1650" height="990"/></clipPath><clipPath id="clip7"><rect x="4073" y="1347" width="1650" height="990"/></clipPath><clipPath id="clip8"><rect x="4073" y="1347" width="1650" height="990"/></clipPath><clipPath id="clip9"><rect x="4073" y="1347" width="1650" height="990"/></clipPath><clipPath id="clip10"><rect x="4073" y="1347" width="1650" height="990"/></clipPath><clipPath id="clip11"><rect x="4073" y="1347" width="1650" height="990"/></clipPath><clipPath id="clip12"><rect x="4073" y="1347" width="1650" height="990"/></clipPath><clipPath id="clip13"><rect x="4073" y="1347" width="1650" height="990"/></clipPath><clipPath id="clip14"><rect x="4073" y="1347" width="1650" height="990"/></clipPath><clipPath id="clip15"><rect x="4073" y="1347" width="1650" height="990"/></clipPath><clipPath id="clip16"><rect x="4073" y="1347" width="1650" height="990"/></clipPath><clipPath id="clip17"><rect x="4073" y="1347" width="1650" height="990"/></clipPath><clipPath id="clip18"><rect x="4073" y="1347" width="1650" height="990"/></clipPath><clipPath id="clip19"><rect x="4073" y="1347" width="1650" height="990"/></clipPath><clipPath id="clip20"><rect x="4073" y="1347" width="1650" height="990"/></clipPath><clipPath id="clip21"><rect x="4073" y="1347" width="1650" height="990"/></clipPath><clipPath id="clip22"><rect x="4073" y="1347" width="1650" height="990"/></clipPath><clipPath id="clip23"><rect x="4073" y="1347" width="1650" height="990"/></clipPath><clipPath id="clip24"><rect x="4073" y="1347" width="1650" height="990"/></clipPath><clipPath id="clip25"><rect x="4073" y="1347" width="1650" height="990"/></clipPath><clipPath id="clip26"><rect x="4073" y="1347" width="1650" height="990"/></clipPath><clipPath id="clip27"><rect x="4073" y="1347" width="1650" height="990"/></clipPath><clipPath id="clip28"><rect x="4073" y="1347" width="1650" height="990"/></clipPath><clipPath id="clip29"><rect x="4073" y="1347" width="1650" height="990"/></clipPath></defs><g clip-path="url(#clip0)" transform="translate(-4072 -1347)"><rect x="4073" y="1348" width="1650" height="989" fill="#FFFFFF"/><g clip-path="url(#clip1)"><path d="M4193.5 1997.57 5673.5 1997.57M4193.5 1901.56 5673.5 1901.56M4193.5 1805.56 5673.5 1805.56M4193.5 1709.56 5673.5 1709.56M4193.5 1613.55 5673.5 1613.55M4193.5 1517.5 5673.5 1517.5" stroke="#D9D9D9" stroke-width="3.4375" stroke-linejoin="round" stroke-miterlimit="10" fill="none"/></g><g clip-path="url(#clip2)"><path d="M4250.14 1614.05 4302.14 1614.05 4302.14 2094 4250.14 2094ZM4414.14 1614.05 4466.15 1614.05 4466.15 2094 4414.14 2094ZM4579.15 1614.05 4630.15 1614.05 4630.15 2094 4579.15 2094ZM4743.16 1614.05 4795.16 1614.05 4795.16 2094 4743.16 2094ZM4907.16 1614.05 4959.16 1614.05 4959.16 2094 4907.16 2094ZM5072.17 1614.05 5123.17 1614.05 5123.17 2094 5072.17 2094ZM5236.17 1614.05 5288.17 1614.05 5288.17 2094 5236.17 2094ZM5401.18 1614.05 5452.18 1614.05 5452.18 2094 5401.18 2094ZM5565.18 1614.05 5616.18 1614.05 5616.18 2094 5565.18 2094Z" fill="#5B9BD5"/></g><g clip-path="url(#clip3)"><path d="M4193.5 2093.5 5673.5 2093.5" stroke="#D9D9D9" stroke-width="3.4375" stroke-linejoin="round" stroke-miterlimit="10" fill="none" fill-rule="evenodd"/></g><g clip-path="url(#clip4)"><text fill="#404040" font-family="Calibri,Calibri_MSFontService,sans-serif" font-weight="400" font-size="41" transform="matrix(1 0 0 1 4265.43 1582)">1</text></g><g clip-path="url(#clip5)"><text fill="#404040" font-family="Calibri,Calibri_MSFontService,sans-serif" font-weight="400" font-size="41" transform="matrix(1 0 0 1 4429.8 1582)">1</text></g><g clip-path="url(#clip6)"><text fill="#404040" font-family="Calibri,Calibri_MSFontService,sans-serif" font-weight="400" font-size="41" transform="matrix(1 0 0 1 4594.17 1582)">1</text></g><g clip-path="url(#clip7)"><text fill="#404040" font-family="Calibri,Calibri_MSFontService,sans-serif" font-weight="400" font-size="41" transform="matrix(1 0 0 1 4758.54 1582)">1</text></g><g clip-path="url(#clip8)"><text fill="#404040" font-family="Calibri,Calibri_MSFontService,sans-serif" font-weight="400" font-size="41" transform="matrix(1 0 0 1 4922.91 1582)">1</text></g><g clip-path="url(#clip9)"><text fill="#404040" font-family="Calibri,Calibri_MSFontService,sans-serif" font-weight="400" font-size="41" transform="matrix(1 0 0 1 5087.28 1582)">1</text></g><g clip-path="url(#clip10)"><text fill="#404040" font-family="Calibri,Calibri_MSFontService,sans-serif" font-weight="400" font-size="41" transform="matrix(1 0 0 1 5251.65 1582)">1</text></g><g clip-path="url(#clip11)"><text fill="#404040" font-family="Calibri,Calibri_MSFontService,sans-serif" font-weight="400" font-size="41" transform="matrix(1 0 0 1 5416.02 1582)">1</text></g><g clip-path="url(#clip12)"><text fill="#404040" font-family="Calibri,Calibri_MSFontService,sans-serif" font-weight="400" font-size="41" transform="matrix(1 0 0 1 5580.39 1582)">1</text></g><g clip-path="url(#clip13)"><text fill="#595959" font-family="Calibri,Calibri_MSFontService,sans-serif" font-weight="400" font-size="41" transform="matrix(1 0 0 1 4134.53 2105)">0</text></g><g clip-path="url(#clip14)"><text fill="#595959" font-family="Calibri,Calibri_MSFontService,sans-serif" font-weight="400" font-size="41" transform="matrix(1 0 0 1 4103.23 2009)">0.2</text></g><g clip-path="url(#clip15)"><text fill="#595959" font-family="Calibri,Calibri_MSFontService,sans-serif" font-weight="400" font-size="41" transform="matrix(1 0 0 1 4103.23 1913)">0.4</text></g><g clip-path="url(#clip16)"><text fill="#595959" font-family="Calibri,Calibri_MSFontService,sans-serif" font-weight="400" font-size="41" transform="matrix(1 0 0 1 4103.23 1817)">0.6</text></g><g clip-path="url(#clip17)"><text fill="#595959" font-family="Calibri,Calibri_MSFontService,sans-serif" font-weight="400" font-size="41" transform="matrix(1 0 0 1 4103.23 1721)">0.8</text></g><g clip-path="url(#clip18)"><text fill="#595959" font-family="Calibri,Calibri_MSFontService,sans-serif" font-weight="400" font-size="41" transform="matrix(1 0 0 1 4134.53 1625)">1</text></g><g clip-path="url(#clip19)"><text fill="#595959" font-family="Calibri,Calibri_MSFontService,sans-serif" font-weight="400" font-size="41" transform="matrix(1 0 0 1 4103.23 1529)">1.2</text></g><g clip-path="url(#clip20)"><text fill="#595959" font-family="Calibri,Calibri_MSFontService,sans-serif" font-weight="400" font-size="41" transform="matrix(0.707107 -0.707107 0.707107 0.707107 4196.62 2237)">zlhwcbj</text></g><g clip-path="url(#clip21)"><text fill="#595959" font-family="Calibri,Calibri_MSFontService,sans-serif" font-weight="400" font-size="41" transform="matrix(0.707107 -0.707107 0.707107 0.707107 4386.62 2211)">hzdcf</text></g><g clip-path="url(#clip22)"><text fill="#595959" font-family="Calibri,Calibri_MSFontService,sans-serif" font-weight="400" font-size="41" transform="matrix(0.707107 -0.707107 0.707107 0.707107 4553.66 2208)">hfmy</text></g><g clip-path="url(#clip23)"><text fill="#595959" font-family="Calibri,Calibri_MSFontService,sans-serif" font-weight="400" font-size="41" transform="matrix(0.707107 -0.707107 0.707107 0.707107 4643.65 2283)">ynryjgfjmm</text></g><g clip-path="url(#clip24)"><text fill="#595959" font-family="Calibri,Calibri_MSFontService,sans-serif" font-weight="400" font-size="41" transform="matrix(0.707107 -0.707107 0.707107 0.707107 4817.52 2273)">fatkjwmku</text></g><g clip-path="url(#clip25)"><text fill="#595959" font-family="Calibri,Calibri_MSFontService,sans-serif" font-weight="400" font-size="41" transform="matrix(0.707107 -0.707107 0.707107 0.707107 5051.78 2203)">kvha</text></g><g clip-path="url(#clip26)"><text fill="#595959" font-family="Calibri,Calibri_MSFontService,sans-serif" font-weight="400" font-size="41" transform="matrix(0.707107 -0.707107 0.707107 0.707107 5159.38 2260)">vcaysmqt</text></g><g clip-path="url(#clip27)"><text fill="#595959" font-family="Calibri,Calibri_MSFontService,sans-serif" font-weight="400" font-size="41" transform="matrix(0.707107 -0.707107 0.707107 0.707107 5284.16 2300)">wwyqldbstm</text></g><g clip-path="url(#clip28)"><text fill="#595959" font-family="Calibri,Calibri_MSFontService,sans-serif" font-weight="400" font-size="41" transform="matrix(0.707107 -0.707107 0.707107 0.707107 5476.57 2272)">kraqojygid</text></g><g clip-path="url(#clip29)"><text fill="#595959" font-family="Calibri,Calibri_MSFontService,sans-serif" font-weight="400" font-size="64" transform="matrix(1 0 0 1 4794.59 1443)">Time (s)</text></g><rect x="4073.5" y="1348.5" width="1650" height="989" stroke="#D9D9D9" stroke-width="3.4375" stroke-linejoin="round" stroke-miterlimit="10" fill="none"/></g></svg>