<svg width="1653" height="992" xmlns="http://www.w3.org/2000/svg" xmlns:xlink="http://www.w3.org/1999/xlink" overflow="hidden"><defs><clipPath id="clip0"><rect x="4072" y="1347" width="1653" height="992"/></clipPath><clipPath id="clip1"><rect x="4073" y="1347" width="1650" height="990"/></clipPath><clipPath id="clip2"><rect x="4214" y="1517" width="1462" height="580"/></clipPath><clipPath id="clip3"><rect x="4073" y="1347" width="1650" height="990"/></clipPath><clipPath id="clip4"><rect x="4073" y="1347" width="1650" height="990"/></clipPath><clipPath id="clip5"><rect x="4073" y="1347" width="1650" height="990"/></clipPath><clipPath id="clip6"><rect x="4073" y="1347" width="1650" height="990"/></clipPath><clipPath id="clip7"><rect x="4073" y="1347" width="1650" height="990"/></clipPath><clipPath id="clip8"><rect x="4073" y="1347" width="1650" height="990"/></clipPath><clipPath id="clip9"><rect x="4073" y="1347" width="1650" height="990"/></clipPath><clipPath id="clip10"><rect x="4073" y="1347" width="1650" height="990"/></clipPath><clipPath id="clip11"><rect x="4073" y="1347" width="1650" height="990"/></clipPath><clipPath id="clip12"><rect x="4073" y="1347" width="1650" height="990"/></clipPath><clipPath id="clip13"><rect x="4073" y="1347" width="1650" height="990"/></clipPath><clipPath id="clip14"><rect x="4073" y="1347" width="1650" height="990"/></clipPath><clipPath id="clip15"><rect x="4073" y="1347" width="1650" height="990"/></clipPath><clipPath id="clip16"><rect x="4073" y="1347" width="1650" height="990"/></clipPath><clipPath id="clip17"><rect x="4073" y="1347" width="1650" height="990"/></clipPath><clipPath id="clip18"><rect x="4073" y="1347" width="1650" height="990"/></clipPath><clipPath id="clip19"><rect x="4073" y="1347" width="1650" height="990"/></clipPath><clipPath id="clip20"><rect x="4073" y="1347" width="1650" height="990"/></clipPath><clipPath id="clip21"><rect x="4073" y="1347" width="1650" height="990"/></clipPath><clipPath id="clip22"><rect x="4073" y="1347" width="1650" height="990"/></clipPath><clipPath id="clip23"><rect x="4073" y="1347" width="1650" height="990"/></clipPath><clipPath id="clip24"><rect x="4073" y="1347" width="1650" height="990"/></clipPath><clipPath id="clip25"><rect x="4073" y="1347" width="1650" height="990"/></clipPath><clipPath id="clip26"><rect x="4073" y="1347" width="1650" height="990"/></clipPath><clipPath id="clip27"><rect x="4073" y="1347" width="1650" height="990"/></clipPath><clipPath id="clip28"><rect x="4073" y="1347" width="1650" height="990"/></clipPath><clipPath id="clip29"><rect x="4073" y="1347" width="1650" height="990"/></clipPath><clipPath id="clip30"><rect x="4073" y="1347" width="1650" height="990"/></clipPath><clipPath id="clip31"><rect x="4073" y="1347" width="1650" height="990"/></clipPath><clipPath id="clip32"><rect x="4073" y="1347" width="1650" height="990"/></clipPath><clipPath id="clip33"><rect x="4073" y="1347" width="1650" height="990"/></clipPath></defs><g clip-path="url(#clip0)" transform="translate(-4072 -1347)"><rect x="4073" y="1348" width="1650" height="989" fill="#FFFFFF"/><g clip-path="url(#clip1)"><path d="M4214.5 2036.57 5673.5 2036.57M4214.5 1978.57 5673.5 1978.57M4214.5 1920.56 5673.5 1920.56M4214.5 1863.56 5673.5 1863.56M4214.5 1805.56 5673.5 1805.56M4214.5 1747.56 5673.5 1747.56M4214.5 1690.56 5673.5 1690.56M4214.5 1632.55 5673.5 1632.55M4214.5 1575.55 5673.5 1575.55M4214.5 1517.5 5673.5 1517.5" stroke="#D9D9D9" stroke-width="3.4375" stroke-linejoin="round" stroke-miterlimit="10" fill="none"/></g><g clip-path="url(#clip2)"><path d="M4270.14 2088.07 4321.14 2088.07 4321.14 2094 4270.14 2094ZM4432.15 2088.07 4483.15 2088.07 4483.15 2094 4432.15 2094ZM4594.15 2088.07 4645.15 2088.07 4645.15 2094 4594.15 2094ZM4756.16 2088.07 4807.16 2088.07 4807.16 2094 4756.16 2094ZM4918.16 2088.07 4969.16 2088.07 4969.16 2094 4918.16 2094ZM5080.17 2088.07 5131.17 2088.07 5131.17 2094 5080.17 2094ZM5242.17 2002.07 5293.17 2002.07 5293.17 2094 5242.17 2094ZM5404.18 1915.06 5455.18 1915.06 5455.18 2094 5404.18 2094ZM5566.18 1569.05 5617.18 1569.05 5617.18 2094 5566.18 2094Z" fill="#5B9BD5"/></g><g clip-path="url(#clip3)"><path d="M4214.5 2093.5 5673.5 2093.5" stroke="#D9D9D9" stroke-width="3.4375" stroke-linejoin="round" stroke-miterlimit="10" fill="none" fill-rule="evenodd"/></g><g clip-path="url(#clip4)"><text fill="#404040" font-family="Calibri,Calibri_MSFontService,sans-serif" font-weight="400" font-size="41" transform="matrix(1 0 0 1 4248.62 2056)">0.001</text></g><g clip-path="url(#clip5)"><text fill="#404040" font-family="Calibri,Calibri_MSFontService,sans-serif" font-weight="400" font-size="41" transform="matrix(1 0 0 1 4410.67 2056)">0.001</text></g><g clip-path="url(#clip6)"><text fill="#404040" font-family="Calibri,Calibri_MSFontService,sans-serif" font-weight="400" font-size="41" transform="matrix(1 0 0 1 4572.71 2056)">0.001</text></g><g clip-path="url(#clip7)"><text fill="#404040" font-family="Calibri,Calibri_MSFontService,sans-serif" font-weight="400" font-size="41" transform="matrix(1 0 0 1 4734.76 2056)">0.001</text></g><g clip-path="url(#clip8)"><text fill="#404040" font-family="Calibri,Calibri_MSFontService,sans-serif" font-weight="400" font-size="41" transform="matrix(1 0 0 1 4896.81 2056)">0.001</text></g><g clip-path="url(#clip9)"><text fill="#404040" font-family="Calibri,Calibri_MSFontService,sans-serif" font-weight="400" font-size="41" transform="matrix(1 0 0 1 5058.85 2056)">0.001</text></g><g clip-path="url(#clip10)"><text fill="#404040" font-family="Calibri,Calibri_MSFontService,sans-serif" font-weight="400" font-size="41" transform="matrix(1 0 0 1 5220.9 1970)">0.016</text></g><g clip-path="url(#clip11)"><text fill="#404040" font-family="Calibri,Calibri_MSFontService,sans-serif" font-weight="400" font-size="41" transform="matrix(1 0 0 1 5382.95 1883)">0.031</text></g><g clip-path="url(#clip12)"><text fill="#404040" font-family="Calibri,Calibri_MSFontService,sans-serif" font-weight="400" font-size="41" transform="matrix(1 0 0 1 5545 1537)">0.091</text></g><g clip-path="url(#clip13)"><text fill="#595959" font-family="Calibri,Calibri_MSFontService,sans-serif" font-weight="400" font-size="41" transform="matrix(1 0 0 1 4155.43 2105)">0</text></g><g clip-path="url(#clip14)"><text fill="#595959" font-family="Calibri,Calibri_MSFontService,sans-serif" font-weight="400" font-size="41" transform="matrix(1 0 0 1 4103.23 2048)">0.01</text></g><g clip-path="url(#clip15)"><text fill="#595959" font-family="Calibri,Calibri_MSFontService,sans-serif" font-weight="400" font-size="41" transform="matrix(1 0 0 1 4103.23 1990)">0.02</text></g><g clip-path="url(#clip16)"><text fill="#595959" font-family="Calibri,Calibri_MSFontService,sans-serif" font-weight="400" font-size="41" transform="matrix(1 0 0 1 4103.23 1932)">0.03</text></g><g clip-path="url(#clip17)"><text fill="#595959" font-family="Calibri,Calibri_MSFontService,sans-serif" font-weight="400" font-size="41" transform="matrix(1 0 0 1 4103.23 1875)">0.04</text></g><g clip-path="url(#clip18)"><text fill="#595959" font-family="Calibri,Calibri_MSFontService,sans-serif" font-weight="400" font-size="41" transform="matrix(1 0 0 1 4103.23 1817)">0.05</text></g><g clip-path="url(#clip19)"><text fill="#595959" font-family="Calibri,Calibri_MSFontService,sans-serif" font-weight="400" font-size="41" transform="matrix(1 0 0 1 4103.23 1760)">0.06</text></g><g clip-path="url(#clip20)"><text fill="#595959" font-family="Calibri,Calibri_MSFontService,sans-serif" font-weight="400" font-size="41" transform="matrix(1 0 0 1 4103.23 1702)">0.07</text></g><g clip-path="url(#clip21)"><text fill="#595959" font-family="Calibri,Calibri_MSFontService,sans-serif" font-weight="400" font-size="41" transform="matrix(1 0 0 1 4103.23 1644)">0.08</text></g><g clip-path="url(#clip22)"><text fill="#595959" font-family="Calibri,Calibri_MSFontService,sans-serif" font-weight="400" font-size="41" transform="matrix(1 0 0 1 4103.23 1587)">0.09</text></g><g clip-path="url(#clip23)"><text fill="#595959" font-family="Calibri,Calibri_MSFontService,sans-serif" font-weight="400" font-size="41" transform="matrix(1 0 0 1 4124.13 1529)">0.1</text></g><g clip-path="url(#clip24)"><text fill="#595959" font-family="Calibri,Calibri_MSFontService,sans-serif" font-weight="400" font-size="41" transform="matrix(0.707107 -0.707107 0.707107 0.707107 4216.36 2237)">zlhwcbj</text></g><g clip-path="url(#clip25)"><text fill="#595959" font-family="Calibri,Calibri_MSFontService,sans-serif" font-weight="400" font-size="41" transform="matrix(0.707107 -0.707107 0.707107 0.707107 4404.04 2211)">hzdcf</text></g><g clip-path="url(#clip26)"><text fill="#595959" font-family="Calibri,Calibri_MSFontService,sans-serif" font-weight="400" font-size="41" transform="matrix(0.707107 -0.707107 0.707107 0.707107 4568.76 2208)">hfmy</text></g><g clip-path="url(#clip27)"><text fill="#595959" font-family="Calibri,Calibri_MSFontService,sans-serif" font-weight="400" font-size="41" transform="matrix(0.707107 -0.707107 0.707107 0.707107 4656.43 2283)">ynryjgfjmm</text></g><g clip-path="url(#clip28)"><text fill="#595959" font-family="Calibri,Calibri_MSFontService,sans-serif" font-weight="400" font-size="41" transform="matrix(0.707107 -0.707107 0.707107 0.707107 4827.97 2273)">fatkjwmku</text></g><g clip-path="url(#clip29)"><text fill="#595959" font-family="Calibri,Calibri_MSFontService,sans-serif" font-weight="400" font-size="41" transform="matrix(0.707107 -0.707107 0.707107 0.707107 5059.91 2203)">kvha</text></g><g clip-path="url(#clip30)"><text fill="#595959" font-family="Calibri,Calibri_MSFontService,sans-serif" font-weight="400" font-size="41" transform="matrix(0.707107 -0.707107 0.707107 0.707107 5165.19 2260)">vcaysmqt</text></g><g clip-path="url(#clip31)"><text fill="#595959" font-family="Calibri,Calibri_MSFontService,sans-serif" font-weight="400" font-size="41" transform="matrix(0.707107 -0.707107 0.707107 0.707107 5287.65 2300)">wwyqldbstm</text></g><g clip-path="url(#clip32)"><text fill="#595959" font-family="Calibri,Calibri_MSFontService,sans-serif" font-weight="400" font-size="41" transform="matrix(0.707107 -0.707107 0.707107 0.707107 5477.73 2272)">kraqojygid</text></g><g clip-path="url(#clip33)"><text fill="#595959" font-family="Calibri,Calibri_MSFontService,sans-serif" font-weight="400" font-size="64" transform="matrix(1 0 0 1 4794.59 1443)">Time (s)</text></g><rect x="4073.5" y="1348.5" width="1650" height="989" stroke="#D9D9D9" stroke-width="3.4375" stroke-linejoin="round" stroke-miterlimit="10" fill="none"/></g></svg>