<svg width="1932" height="1168" xmlns="http://www.w3.org/2000/svg" xmlns:xlink="http://www.w3.org/1999/xlink" overflow="hidden"><defs><clipPath id="clip0"><rect x="4182" y="30" width="1932" height="1168"/></clipPath><clipPath id="clip1"><rect x="4183" y="30" width="1928" height="1166"/></clipPath><clipPath id="clip2"><rect x="4293" y="200" width="1771" height="893"/></clipPath><clipPath id="clip3"><rect x="4183" y="30" width="1928" height="1166"/></clipPath><clipPath id="clip4"><rect x="4183" y="30" width="1928" height="1166"/></clipPath><clipPath id="clip5"><rect x="4183" y="30" width="1928" height="1166"/></clipPath><clipPath id="clip6"><rect x="4183" y="30" width="1928" height="1166"/></clipPath><clipPath id="clip7"><rect x="4183" y="30" width="1928" height="1166"/></clipPath><clipPath id="clip8"><rect x="4183" y="30" width="1928" height="1166"/></clipPath><clipPath id="clip9"><rect x="4183" y="30" width="1928" height="1166"/></clipPath><clipPath id="clip10"><rect x="4183" y="30" width="1928" height="1166"/></clipPath><clipPath id="clip11"><rect x="4183" y="30" width="1928" height="1166"/></clipPath><clipPath id="clip12"><rect x="4183" y="30" width="1928" height="1166"/></clipPath><clipPath id="clip13"><rect x="4183" y="30" width="1928" height="1166"/></clipPath><clipPath id="clip14"><rect x="4183" y="30" width="1928" height="1166"/></clipPath><clipPath id="clip15"><rect x="4183" y="30" width="1928" height="1166"/></clipPath><clipPath id="clip16"><rect x="4183" y="30" width="1928" height="1166"/></clipPath><clipPath id="clip17"><rect x="4183" y="30" width="1928" height="1166"/></clipPath><clipPath id="clip18"><rect x="4183" y="30" width="1928" height="1166"/></clipPath><clipPath id="clip19"><rect x="4183" y="30" width="1928" height="1166"/></clipPath></defs><g clip-path="url(#clip0)" transform="translate(-4182 -30)"><rect x="4183" y="30.9999" width="1929" height="1165" fill="#FFFFFF"/><g clip-path="url(#clip1)"><path d="M4293.5 978.532 6061.5 978.532M4293.5 867.529 6061.5 867.529M4293.5 756.525 6061.5 756.525M4293.5 645.521 6061.5 645.521M4293.5 534.518 6061.5 534.518M4293.5 423.514 6061.5 423.514M4293.5 312.51 6061.5 312.51M4293.5 200.5 6061.5 200.5" stroke="#D9D9D9" stroke-width="3.4375" stroke-linejoin="round" stroke-miterlimit="10" fill="none"/></g><g clip-path="url(#clip2)"><path d="M4495.15 1068.04 4680.15 1068.04 4680.15 1090 4495.15 1090ZM5085.17 1045.03 5270.17 1045.03 5270.17 1090 5085.17 1090ZM5674.19 268.009 5859.19 268.009 5859.19 1090 5674.19 1090Z" fill="#5B9BD5"/></g><g clip-path="url(#clip3)"><path d="M4293.5 1089.5 6061.5 1089.5" stroke="#D9D9D9" stroke-width="3.4375" stroke-linejoin="round" stroke-miterlimit="10" fill="none" fill-rule="evenodd"/></g><g clip-path="url(#clip4)"><text fill="#404040" font-family="Calibri,Calibri_MSFontService,sans-serif" font-weight="400" font-size="41" transform="matrix(1 0 0 1 4577.54 1036)">1</text></g><g clip-path="url(#clip5)"><text fill="#404040" font-family="Calibri,Calibri_MSFontService,sans-serif" font-weight="400" font-size="41" transform="matrix(1 0 0 1 5166.93 1014)">2</text></g><g clip-path="url(#clip6)"><text fill="#404040" font-family="Calibri,Calibri_MSFontService,sans-serif" font-weight="400" font-size="41" transform="matrix(1 0 0 1 5745.86 236)">37</text></g><g clip-path="url(#clip7)"><text fill="#595959" font-family="Calibri,Calibri_MSFontService,sans-serif" font-weight="400" font-size="41" transform="matrix(1 0 0 1 4234.13 1101)">0</text></g><g clip-path="url(#clip8)"><text fill="#595959" font-family="Calibri,Calibri_MSFontService,sans-serif" font-weight="400" font-size="41" transform="matrix(1 0 0 1 4234.13 990)">5</text></g><g clip-path="url(#clip9)"><text fill="#595959" font-family="Calibri,Calibri_MSFontService,sans-serif" font-weight="400" font-size="41" transform="matrix(1 0 0 1 4213.23 879)">10</text></g><g clip-path="url(#clip10)"><text fill="#595959" font-family="Calibri,Calibri_MSFontService,sans-serif" font-weight="400" font-size="41" transform="matrix(1 0 0 1 4213.23 768)">15</text></g><g clip-path="url(#clip11)"><text fill="#595959" font-family="Calibri,Calibri_MSFontService,sans-serif" font-weight="400" font-size="41" transform="matrix(1 0 0 1 4213.23 657)">20</text></g><g clip-path="url(#clip12)"><text fill="#595959" font-family="Calibri,Calibri_MSFontService,sans-serif" font-weight="400" font-size="41" transform="matrix(1 0 0 1 4213.23 546)">25</text></g><g clip-path="url(#clip13)"><text fill="#595959" font-family="Calibri,Calibri_MSFontService,sans-serif" font-weight="400" font-size="41" transform="matrix(1 0 0 1 4213.23 435)">30</text></g><g clip-path="url(#clip14)"><text fill="#595959" font-family="Calibri,Calibri_MSFontService,sans-serif" font-weight="400" font-size="41" transform="matrix(1 0 0 1 4213.23 324)">35</text></g><g clip-path="url(#clip15)"><text fill="#595959" font-family="Calibri,Calibri_MSFontService,sans-serif" font-weight="400" font-size="41" transform="matrix(1 0 0 1 4213.23 212)">40</text></g><g clip-path="url(#clip16)"><text fill="#595959" font-family="Calibri,Calibri_MSFontService,sans-serif" font-weight="400" font-size="41" transform="matrix(1 0 0 1 4404.72 1155)">Small-Size-Column.txt</text></g><g clip-path="url(#clip17)"><text fill="#595959" font-family="Calibri,Calibri_MSFontService,sans-serif" font-weight="400" font-size="41" transform="matrix(1 0 0 1 4968.62 1155)">Medium-Size-Column.txt</text></g><g clip-path="url(#clip18)"><text fill="#595959" font-family="Calibri,Calibri_MSFontService,sans-serif" font-weight="400" font-size="41" transform="matrix(1 0 0 1 5583.07 1155)">Large-Size-Column.txt</text></g><g clip-path="url(#clip19)"><text fill="#595959" font-family="Calibri,Calibri_MSFontService,sans-serif" font-weight="400" font-size="64" transform="matrix(1 0 0 1 5043.81 126)">Time (s)</text></g><rect x="4183.5" y="31.5001" width="1929" height="1165" stroke="#D9D9D9" stroke-width="3.4375" stroke-linejoin="round" stroke-miterlimit="10" fill="none"/></g></svg>